<svg xmlns="http://www.w3.org/2000/svg" viewBox="0 0 317.06 353.95"><defs><style>.cls-1{fill:#c1272d;}</style></defs><g id="Layer_2" data-name="Layer 2"><g id="Layer_1-2" data-name="Layer 1"><circle cx="203.02" cy="37.74" r="37.74"/><path d="M216.05,110.32h0a25.07,25.07,0,0,1-.93,3.14l-13.53,36.82L195.8,166l-3.34,9.12-8,21.64-6,16.29h0l-1.18,3.24a1.07,1.07,0,0,1-1.57.54l-25.3-15.55c-.29-.07-.49,0-.57.06s0,.35.19.64l-4.1-3.45-5.68,6.73-16.39,19.43a27.26,27.26,0,0,1-8-30.22l6-16.25L147.35,109a.92.92,0,0,1,.88-.61h27.88a14.45,14.45,0,0,0,10-4,14.29,14.29,0,0,0,4.53-10.48c0-2.14-1.37-7-2-5.35a13.63,13.63,0,0,0-12.5-8.12H161.86a25.31,25.31,0,0,1,24.35-3.83l14.29,5.25A24.64,24.64,0,0,1,216.05,110.32Z"/><path d="M189.58,90.8a13.18,13.18,0,0,1-13.13,14h-28.3l5.56-15.12a25.21,25.21,0,0,1,8.15-11.21h14.23A13.4,13.4,0,0,1,189.58,90.8Z"/><path d="M221.48,353.21a17.29,17.29,0,0,1-5,.74,17.09,17.09,0,0,1-16.36-12.14l-21.62-71.06h0l-16.16-13.63L150.1,246.8l-16.31,19.32-2.33,2.78-15.89,18.85a29.84,29.84,0,0,1-7.85,6.56l-63.8,36.83A17.11,17.11,0,0,1,26.8,301.5l63.14-36.45h0l9.67-11.47,24.3-28.84,16.39-19.43,5.68-6.73,4.1,3.45,22.07,18.61,2.74,2.31h0l12.88,10.85,15.44,13a22.53,22.53,0,0,1,7,10.67l22.61,74.37A17.1,17.1,0,0,1,221.48,353.21Z"/><path d="M161.86,78.51a25.21,25.21,0,0,0-8.15,11.21l-5.56,15.12H121.86a6.38,6.38,0,0,0-5.09,2.54l-31,41.09a13.17,13.17,0,1,1-21-15.86l29.47-39,5.24-7a20.45,20.45,0,0,1,16.31-8.12Z"/><path d="M279,203.66a13.15,13.15,0,0,1-17.66,5.9l-43.64-21.79-10.33-5.16A21.21,21.21,0,0,1,195.8,166h0l5.79-15.74,13.53-36.82a25.07,25.07,0,0,0,.93-3.14l5.32,47.38a4.8,4.8,0,0,0,2.64,3.77L273.12,186A13.16,13.16,0,0,1,279,203.66Z"/><path d="M235.54,238.44l-7.22-4.06-7.23-4-14.47-8.07-29-16.05c-9.66-5.36-19.37-10.64-29.05-16L119.5,174.34a11.9,11.9,0,0,1-4-1.36L.72,109.31a1.4,1.4,0,0,1-.54-1.91l2.75-4.93a1.4,1.4,0,0,1,1.91-.54L119.3,166.2c2.85,1.59,3.25,2.68,3.25,2.68l28.81,16.38c9.61,5.45,19.2,10.94,28.83,16.34l28.88,16.26,14.47,8.08,7.24,4,7.25,4,2.23,1.23-2.5,4.47Z"/><path class="cls-1" d="M308.48,202.86c-1.78-1-4.64-1.51-8.44,1.88s-12.57,14.61-18.33,17.53-13.11,8.27-30.82,11.94c0,0-8.37,1.14-11.66-.58a.74.74,0,0,0-1,.31l-2.5,4.59a.7.7,0,0,0,.2.92,40.81,40.81,0,0,1,5,4.29c2.38,2.48,2.49,2.73,7,11.17s33.53-.54,47.69-11.45,19.53-16.27,21.28-24.94C318.19,212.28,310.27,203.85,308.48,202.86Zm-50.34,51.6a17.24,17.24,0,0,1-6.86-.48c-2.77-.84-3.73-4.49-3.93-5.73a.18.18,0,0,1,.28-.19l10.55,6.16A.13.13,0,0,1,258.14,254.46Zm.83-10.78a.44.44,0,0,1-.44-.09l-6.3-5.73a.43.43,0,0,1,.24-.74c2.65-.3,10.4-1.41,16.86-4.46a.41.41,0,0,1,.53.15l3.32,5.05a.42.42,0,0,1-.21.63Zm21.36,4.83-5.9,2.53a.23.23,0,0,1-.14,0,17.15,17.15,0,0,1-5.93-1.15,19.14,19.14,0,0,1-3.85-1.79.41.41,0,0,1,.09-.73L276,242.9a.44.44,0,0,1,.48.13l4,4.83A.42.42,0,0,1,280.33,248.51Zm-.78-13.62-3.26-5a.4.4,0,0,1,.15-.57c1.88-1,10.18-5.44,13.54-9a.39.39,0,0,1,.62.07l2.67,4.47a.38.38,0,0,1-.09.51c-1.63,1.3-10.17,8-13.11,9.7A.4.4,0,0,1,279.55,234.89Zm21.2.57c-1.78,1.37-10.23,7.84-13.11,9.44a.41.41,0,0,1-.51-.1l-4-4.88a.4.4,0,0,1,.1-.61c1.84-1.13,9.58-6,12.86-9.61a.4.4,0,0,1,.62,0l4.14,5.15A.42.42,0,0,1,300.75,235.46Zm-2.26-15.72L295.31,215a.41.41,0,0,1,.05-.5l7.06-7.29s3-3.8,6.93.15a.4.4,0,0,1,0,.55l-10.24,11.87A.4.4,0,0,1,298.49,219.74Zm8,10.13a.43.43,0,0,1-.62-.08L302,224.43a.45.45,0,0,1,0-.54l10.33-11.44a.42.42,0,0,1,.71.12C316.83,221.13,308.35,228.3,306.49,229.87Z"/></g></g></svg>