<svg xmlns="http://www.w3.org/2000/svg" viewBox="0 0 613.76 613.76"><defs><style>.cls-1{fill:#fff;}.cls-2{fill:red;}.cls-3{fill:#ff1d25;}.cls-4{fill:#999;}.cls-5{fill:#666;}</style></defs><g id="Layer_2" data-name="Layer 2"><g id="Layer_1-2" data-name="Layer 1"><path d="M306.88,613.46A306.47,306.47,0,0,1,90.1,90.1,306.58,306.58,0,1,1,426.22,589.37,304.63,304.63,0,0,1,306.88,613.46Z"/><path d="M306.88.6A306.36,306.36,0,0,1,426.1,589.1,306.36,306.36,0,0,1,187.66,24.67,304.38,304.38,0,0,1,306.88.6m0-.6C137.4,0,0,137.4,0,306.88S137.4,613.76,306.88,613.76,613.76,476.37,613.76,306.88,476.37,0,306.88,0Z"/><circle class="cls-1" cx="306.88" cy="319.74" r="122.57"/><path d="M306.88,197.47a121.94,121.94,0,1,1-47.59,9.61,121.47,121.47,0,0,1,47.59-9.61m0-.6A122.87,122.87,0,1,0,429.75,319.74,122.87,122.87,0,0,0,306.88,196.87Z"/><path d="M328.6,242.2a30.41,30.41,0,0,1-6.45-.71,26.33,26.33,0,0,1-13-6.76c-3.14-3.18-4.46-6.76-3.73-10.09,1.18-5.37,7.55-9,15.84-9a29.64,29.64,0,0,1,6.44.72c10.77,2.36,18.29,9.92,16.76,16.85C343.25,238.59,336.89,242.2,328.6,242.2Z"/><path d="M321.23,216h0a29.77,29.77,0,0,1,6.38.71,26,26,0,0,1,12.88,6.68c3.07,3.1,4.36,6.59,3.65,9.81-1.15,5.24-7.39,8.75-15.54,8.75a29.68,29.68,0,0,1-6.38-.7,26.05,26.05,0,0,1-12.89-6.68c-3.06-3.1-4.36-6.59-3.65-9.82,1.15-5.23,7.4-8.75,15.55-8.75m0-.6c-8.2,0-14.89,3.57-16.13,9.23-1.56,7.09,6,14.8,17,17.2a30.26,30.26,0,0,0,6.51.72c8.2,0,14.88-3.56,16.13-9.22,1.56-7.1-6.05-14.8-17-17.2a30.42,30.42,0,0,0-6.51-.73Z"/><path d="M291.38,421.06a30.34,30.34,0,0,1-6.45-.71,26.32,26.32,0,0,1-13-6.76c-3.13-3.18-4.45-6.76-3.72-10.09,1.18-5.38,7.54-9,15.84-9a29.77,29.77,0,0,1,6.44.72c10.76,2.36,18.28,9.92,16.76,16.85C306,417.45,299.67,421.06,291.38,421.06Z"/><path d="M284,394.81h0a29.68,29.68,0,0,1,6.37.71,26,26,0,0,1,12.89,6.68c3.06,3.1,4.36,6.58,3.65,9.81-1.15,5.24-7.4,8.75-15.55,8.75a29.84,29.84,0,0,1-6.38-.71c-10.6-2.32-18-9.72-16.53-16.49,1.15-5.23,7.4-8.75,15.55-8.75m0-.6c-8.2,0-14.88,3.57-16.13,9.22-1.55,7.1,6.05,14.81,17,17.21a30.23,30.23,0,0,0,6.5.72c8.21,0,14.89-3.56,16.13-9.22,1.56-7.1-6-14.8-17-17.21a30.9,30.9,0,0,0-6.51-.72Z"/><path d="M232.3,280.93a9,9,0,0,1-5.28-1.56c-2.8-1.95-4.27-5.47-4.12-9.93a26.27,26.27,0,0,1,5-13.82c4.49-6.47,11-10.65,16.68-10.65a9,9,0,0,1,5.28,1.57c5.83,4,5.45,14.7-.84,23.75C244.49,276.76,237.94,280.93,232.3,280.93Z"/><path d="M244.54,244.67v.6a8.78,8.78,0,0,1,5.11,1.51c5.69,3.95,5.28,14.42-.91,23.34-4.44,6.39-10.89,10.51-16.44,10.51a8.7,8.7,0,0,1-5.11-1.51c-2.71-1.88-4.13-5.32-4-9.67a26,26,0,0,1,4.91-13.66c4.43-6.39,10.89-10.52,16.43-10.52v-.6m0,0c-5.57,0-12.23,4-16.93,10.78-6.39,9.2-6.73,20-.76,24.17a9.44,9.44,0,0,0,5.45,1.61c5.57,0,12.23-4,16.93-10.77,6.39-9.2,6.73-20,.77-24.17a9.43,9.43,0,0,0-5.46-1.62Z"/><path d="M368.23,391.93a9,9,0,0,1-5.28-1.56c-5.82-4-5.45-14.7.84-23.75,4.49-6.47,11-10.65,16.68-10.65a9,9,0,0,1,5.28,1.57c2.81,1.94,4.27,5.47,4.13,9.93a26.32,26.32,0,0,1-5,13.82C380.42,387.76,373.87,391.93,368.23,391.93Z"/><path d="M380.48,355.67v.6a8.77,8.77,0,0,1,5.1,1.51c2.72,1.89,4.14,5.32,4,9.68a26.09,26.09,0,0,1-4.91,13.66c-4.44,6.39-10.89,10.51-16.44,10.51a8.7,8.7,0,0,1-5.11-1.51c-2.71-1.88-4.13-5.32-4-9.67A26,26,0,0,1,364,366.79c4.43-6.39,10.89-10.52,16.43-10.52v-.6m0,0c-5.57,0-12.23,4-16.93,10.78-6.39,9.2-6.73,20-.76,24.17a9.44,9.44,0,0,0,5.45,1.61c5.57,0,12.23-4,16.93-10.77,6.39-9.2,6.73-20,.77-24.17a9.43,9.43,0,0,0-5.46-1.62Z"/><path d="M224.87,369.07c-6,0-12.63-5.34-16.45-13.3-4.76-9.94-3.43-20.52,3-23.59a8.83,8.83,0,0,1,3.8-.83c6,0,12.62,5.34,16.44,13.3,4.76,9.94,3.43,20.52-3,23.58A8.65,8.65,0,0,1,224.87,369.07Z"/><path d="M215.18,331.05v.59h0c5.81,0,12.46,5.41,16.17,13.14A26.07,26.07,0,0,1,234,359.05c-.56,4.32-2.51,7.49-5.49,8.91a8.35,8.35,0,0,1-3.66.81c-5.82,0-12.47-5.4-16.18-13.13-4.69-9.79-3.42-20.19,2.82-23.19a8.68,8.68,0,0,1,3.67-.81v-.59m0,0a9.08,9.08,0,0,0-3.92.86c-6.56,3.14-7.95,13.88-3.11,24,3.94,8.21,10.78,13.47,16.72,13.47a9.11,9.11,0,0,0,3.92-.86c6.55-3.14,7.94-13.88,3.1-24-3.94-8.21-10.77-13.48-16.71-13.47Z"/><path d="M397,301.41c-6,0-12.63-5.35-16.45-13.31-4.76-9.94-3.43-20.52,3-23.58a8.69,8.69,0,0,1,3.79-.84c6,0,12.63,5.34,16.45,13.3a26.4,26.4,0,0,1,2.69,14.44c-.57,4.42-2.58,7.67-5.65,9.15A8.83,8.83,0,0,1,397,301.41Z"/><path d="M387.32,263.38v.6h0c5.81,0,12.46,5.4,16.17,13.13,4.69,9.79,3.42,20.19-2.82,23.19a8.52,8.52,0,0,1-3.66.81c-5.82,0-12.47-5.41-16.18-13.14a26.07,26.07,0,0,1-2.67-14.27c.56-4.32,2.51-7.49,5.49-8.91a8.38,8.38,0,0,1,3.66-.81v-.6m0,0a9,9,0,0,0-3.92.87c-6.55,3.14-7.94,13.87-3.1,24,3.94,8.21,10.77,13.48,16.72,13.48a9,9,0,0,0,3.92-.87c6.55-3.14,7.94-13.88,3.1-24-3.94-8.22-10.77-13.48-16.72-13.48Z"/><path d="M306.29,337.84C294,337.84,284,327.59,284,315s10-22.85,22.26-22.85,22.26,10.25,22.26,22.85S318.56,337.84,306.29,337.84Z"/><path d="M306.29,292.44c12.11,0,22,10.12,22,22.55s-9.85,22.55-22,22.55-22-10.12-22-22.55,9.85-22.55,22-22.55m0-.6c-12.46,0-22.56,10.37-22.56,23.15s10.1,23.15,22.56,23.15,22.55-10.36,22.55-23.15-10.09-23.15-22.55-23.15Z"/><circle class="cls-1" cx="305.1" cy="86.46" r="37.69" transform="translate(150.85 363.54) rotate(-76.72)"/><path class="cls-1" d="M305.1,49.07a37.39,37.39,0,1,1-37.39,37.39A37.43,37.43,0,0,1,305.1,49.07m0-.6a38,38,0,1,0,38,38,38,38,0,0,0-38-38Z"/><circle class="cls-1" cx="203.01" cy="116.14" r="29.38"/><path class="cls-1" d="M203,87.06a29.08,29.08,0,1,1-29.08,29.08A29.12,29.12,0,0,1,203,87.06m0-.6a29.68,29.68,0,1,0,29.67,29.68A29.68,29.68,0,0,0,203,86.46Z"/><path class="cls-1" d="M407.2,145.52a29.38,29.38,0,1,1,29.38-29.38A29.41,29.41,0,0,1,407.2,145.52Z"/><path class="cls-1" d="M407.2,87.06a29.08,29.08,0,1,1-29.08,29.08A29.12,29.12,0,0,1,407.2,87.06m0-.6a29.68,29.68,0,1,0,29.68,29.68A29.68,29.68,0,0,0,407.2,86.46Z"/><path class="cls-2" d="M239.6,190.27a1.65,1.65,0,0,0,2.33,1.92,141.46,141.46,0,0,1,127.54.56,1.65,1.65,0,0,0,2.35-1.9c-7.6-28.49-17.69-48.59-65.53-48.59C256.72,142.26,247.43,161.65,239.6,190.27Z"/><path class="cls-2" d="M370.23,193.54a2.24,2.24,0,0,1-1-.25,140.84,140.84,0,0,0-127-.56,2.21,2.21,0,0,1-2.43-.28,2.24,2.24,0,0,1-.74-2.34c7.77-28.37,17.14-48.45,67.27-48.45,22.58,0,37.92,4.37,48.26,13.76,9.24,8.4,13.82,20.18,17.85,35.28a2.27,2.27,0,0,1-2.17,2.84Zm-65.08-16.86h.55a143,143,0,0,1,64.05,15.54,1,1,0,0,0,1.13-.12,1,1,0,0,0,.36-1.1c-7.28-27.28-16.68-48.14-64.95-48.14-23.07,0-38.51,4.17-48.6,13.12-9.85,8.74-14.05,21.81-17.52,34.45h0a1.05,1.05,0,0,0,.35,1.1,1,1,0,0,0,1.14.13A142.93,142.93,0,0,1,305.15,176.68Z"/><path class="cls-2" d="M222.45,167.24c6.53.6-.77,7.74-3.56,19.59a56.28,56.28,0,0,0-1.35,16.34,4.5,4.5,0,0,1-1.4,3.54l-6.06,5.73a4.51,4.51,0,0,1-6.14,0l-33.52-31.09a4.49,4.49,0,0,1,.85-7.21,84.24,84.24,0,0,1,14.38-6.33C189.21,166.65,209.91,166.1,222.45,167.24Z"/><path class="cls-3" d="M207,214.26a5,5,0,0,1-3.46-1.36L170,181.82a5,5,0,0,1-1.59-4.35,5,5,0,0,1,2.56-3.82,84.67,84.67,0,0,1,14.48-6.38c3.63-1.21,24.5-1.76,37-.62a3.38,3.38,0,0,1,2.84,1.38c.93,1.59-.16,4-1.81,7.75A61.49,61.49,0,0,0,219.48,187a55.38,55.38,0,0,0-1.34,16.16,5.08,5.08,0,0,1-1.58,4l-6.07,5.73A5.07,5.07,0,0,1,207,214.26Zm-1.28-47c-9.16,0-17.71.47-19.87,1.2a84.2,84.2,0,0,0-14.28,6.28,3.83,3.83,0,0,0-1.95,2.92,3.87,3.87,0,0,0,1.22,3.33L204.35,212a3.9,3.9,0,0,0,5.31,0l6.07-5.73a3.85,3.85,0,0,0,1.21-3.07,57.11,57.11,0,0,1,1.37-16.51,62.92,62.92,0,0,1,4.13-11.4c1.4-3.13,2.5-5.6,1.88-6.65-.26-.45-.89-.71-1.92-.8C217.57,167.4,211.52,167.21,205.71,167.21Z"/><path class="cls-2" d="M210,423.19c-3.65,4.66-19.68,5.92-19.68,5.92-30.25.3-44.16-5.83-54.61-8.55s-28.77-17.94-36.19-22.12-11.91-2.31-14.48-.07-12.5,18.85-8.22,28.6c5.95,13.54,16.63,20.38,43.65,33.18s77.65,17.13,82,1.74,4.45-15.84,7.46-20.74a69.93,69.93,0,0,1,7.35-9.56Zm-106.7,8.12-4.41,10.14a.71.71,0,0,1-1,.35c-3.6-1.9-20-10.61-16.91-25.94a.72.72,0,0,1,1.12-.45l20.94,15A.69.69,0,0,1,103.27,431.31Zm3-8.61L85.36,407a.67.67,0,0,1-.16-.9c5-7.86,11.27-2.71,11.27-2.71l14.14,9.4a.65.65,0,0,1,.25.8l-3.51,8.87A.67.67,0,0,1,106.32,422.7Zm33.39,27.21-4.87,9.4a.69.69,0,0,1-.81.34c-5.28-1.59-21.39-9.16-24.78-10.77a.68.68,0,0,1-.32-.92l4.94-9.9a.69.69,0,0,1,1-.26c6.64,4.73,21,9.94,24.45,11.14A.7.7,0,0,1,139.71,449.91Zm3.18-9.09c-5.4-1.66-21.76-9.65-24.87-11.18a.66.66,0,0,1-.34-.81l2.78-8.26a.65.65,0,0,1,1-.33c6.78,4.69,21.92,9,25.35,10a.66.66,0,0,1,.43.87l-3.54,9.33A.65.65,0,0,1,142.89,440.82ZM173,456.73a31.41,31.41,0,0,1-5.66,4.28,28.49,28.49,0,0,1-9.27,4,.53.53,0,0,1-.25,0L147.27,463a.69.69,0,0,1-.49-1l4.83-9.33a.7.7,0,0,1,.73-.36l20.25,3.3A.69.69,0,0,1,173,456.73Zm7.47-9.27L155.72,444a.71.71,0,0,1-.56-1l3.63-9.42a.69.69,0,0,1,.82-.44c11.64,2.69,24.7,1.74,29.14,1.29a.71.71,0,0,1,.64,1.12l-8.26,11.62A.71.71,0,0,1,180.45,447.46Zm16.23,14.11a29.08,29.08,0,0,1-11,3.22.22.22,0,0,1-.16-.38l15.06-13.83a.31.31,0,0,1,.52.21C201.18,452.9,200.92,459.2,196.68,461.57Z"/><path class="cls-2" d="M524.35,398.37c-2.57-2.24-7.05-4.12-14.47.07s-25.74,19.41-36.19,22.12-24.36,8.85-54.61,8.55c0,0-16-1.26-19.68-5.92l-7.29,8.4a69.93,69.93,0,0,1,7.35,9.56c3,4.9,3.1,5.34,7.46,20.74s55,11.05,82-1.74,37.71-19.64,43.65-33.18C536.86,417.22,526.92,400.61,524.35,398.37ZM423.72,464.79a29.13,29.13,0,0,1-11-3.22c-4.24-2.37-4.5-8.67-4.39-10.78a.31.31,0,0,1,.52-.21l15.05,13.83A.22.22,0,0,1,423.72,464.79Zm5.2-17.33a.74.74,0,0,1-.69-.29L420,435.55a.71.71,0,0,1,.65-1.12c4.44.45,17.5,1.4,29.14-1.29a.7.7,0,0,1,.82.44l3.64,9.42a.72.72,0,0,1-.57,1ZM462.1,463,451.57,465a.57.57,0,0,1-.26,0,28.48,28.48,0,0,1-9.26-4,31,31,0,0,1-5.66-4.28.69.69,0,0,1,.39-1.17l20.25-3.3a.7.7,0,0,1,.73.36l4.83,9.33A.69.69,0,0,1,462.1,463Zm3.58-22.54-3.55-9.33a.67.67,0,0,1,.44-.87c3.42-.94,18.57-5.28,25.34-10a.65.65,0,0,1,1,.33l2.78,8.26a.67.67,0,0,1-.33.81c-3.13,1.53-19.49,9.52-24.88,11.18A.65.65,0,0,1,465.68,440.41Zm34.44,8.47c-3.4,1.61-19.5,9.18-24.78,10.77a.68.68,0,0,1-.81-.34l-4.86-9.4a.69.69,0,0,1,.38-1c3.42-1.2,17.79-6.41,24.44-11.14a.68.68,0,0,1,1,.26l4.94,9.9A.68.68,0,0,1,500.12,448.88Zm1.9-26.47-3.51-8.87a.66.66,0,0,1,.25-.8l14.13-9.4s6.23-5.15,11.28,2.71a.67.67,0,0,1-.17.9L503.05,422.7A.67.67,0,0,1,502,422.41Zm9.48,19.39a.72.72,0,0,1-1-.35l-4.42-10.14a.71.71,0,0,1,.24-.86l20.95-15a.72.72,0,0,1,1.12.45C531.5,431.19,515.09,439.9,511.5,441.8Z"/><path class="cls-2" d="M388.2,167.19c-6.53.59.77,7.74,3.56,19.59a55.86,55.86,0,0,1,1.35,16.33,4.48,4.48,0,0,0,1.4,3.54l6.07,5.73a4.49,4.49,0,0,0,6.14,0l33.52-31.09a4.48,4.48,0,0,0-.85-7.2A84.21,84.21,0,0,0,425,167.78C421.44,166.59,400.74,166.05,388.2,167.19Z"/><path class="cls-2" d="M403.66,214.2a5.08,5.08,0,0,1-3.49-1.38l-6.07-5.73a5.05,5.05,0,0,1-1.58-4,55.41,55.41,0,0,0-1.34-16.16,61.49,61.49,0,0,0-4.06-11.19c-1.65-3.71-2.75-6.16-1.82-7.74a3.39,3.39,0,0,1,2.85-1.39l.05.6-.05-.6c12.55-1.14,33.42-.59,37,.62a85.21,85.21,0,0,1,14.49,6.38,5.08,5.08,0,0,1,1,8.17l-33.51,31.09A5.11,5.11,0,0,1,403.66,214.2Zm1.29-47c-5.81,0-11.87.19-16.69.63-1,.09-1.66.35-1.92.79-.62,1.06.48,3.53,1.87,6.65a63,63,0,0,1,4.14,11.41,56.71,56.71,0,0,1,1.36,16.51,3.91,3.91,0,0,0,1.21,3.07L401,212a3.9,3.9,0,0,0,5.32,0l33.52-31.09a3.89,3.89,0,0,0-.73-6.24,84.24,84.24,0,0,0-14.28-6.29C422.65,167.63,414.11,167.16,405,167.16Z"/><path class="cls-4" d="M527.65,163.09l-4.11,4.13-1.78,1.8L504,186.94l-1.78,1.79-17.81,17.92-1.78,1.79-17.8,17.92L463,228.15q-8.89,9-17.8,17.92l-1.78,1.79-5.49,5.53a2.75,2.75,0,0,1-4.14-.27q-4.09-5.42-8.18-10.82L423.82,240l-3.34-4.41a2.75,2.75,0,0,1,.22-3.56l3.12-3.25,1.78-1.84,17.81-18.51,1.78-1.85L463,188l1.79-1.85,17.8-18.51,1.78-1.85,17.81-18.51,1.78-1.84,3.88-4a2.76,2.76,0,0,1,4,.08l9.9,11.1,1.78,2c1.41,1.57,2.81,3.15,4.21,4.72A2.74,2.74,0,0,1,527.65,163.09Z"/><path class="cls-4" d="M82.38,163.09c1.38,1.37,2.75,2.76,4.12,4.13l1.78,1.8,17.81,17.92,1.78,1.79,17.8,17.92,1.79,1.79,17.8,17.92c.6.6,1.18,1.2,1.78,1.79l17.81,17.92,1.78,1.79,5.49,5.53a2.73,2.73,0,0,0,4.13-.27l8.19-10.82,1.78-2.35,3.34-4.41a2.75,2.75,0,0,0-.22-3.56l-3.12-3.25-1.78-1.84-17.81-18.51-1.78-1.85L147,188l-1.78-1.85-17.8-18.51-1.79-1.85-17.8-18.51-1.78-1.84-3.89-4a2.75,2.75,0,0,0-4,.08l-9.9,11.1-1.78,2-4.22,4.72A2.77,2.77,0,0,0,82.38,163.09Z"/><path class="cls-5" d="M443.39,211v34.34l-.37.37c-.29.3-.59.6-.89.89L440,248.77l-3.33,3.35a.94.94,0,0,1-1.42-.09l-4.11-5.42-4.08-5.4-1.41-1.86v-9.89l1.27-1.33L443.39,211m1.8-4.46-1.78,1.85L425.6,226.89l-1.78,1.84V240l1.78,2.35q4.09,5.4,8.18,10.82a2.76,2.76,0,0,0,4.14.27l5.49-5.53,1.78-1.79V206.53Z"/><path class="cls-5" d="M423.8,231.34V237l-.22-.3c-.55-.73-1.11-1.46-1.66-2.2a1,1,0,0,1,.07-1.23l1.81-1.88m1.8-4.45-1.78,1.84L420.7,232a2.75,2.75,0,0,0-.22,3.56l3.34,4.41,1.78,2.35V226.89Z"/><path class="cls-5" d="M482.57,170.27v35.64l-.38.38-.88.88-8.91,9-7.61,7.65v-35l1.28-1.32,16.5-17.15m1.79-4.46-1.78,1.85-17.8,18.51L463,188v40.13l1.79-1.79,17.8-17.92,1.78-1.79V165.81Z"/><path class="cls-5" d="M463,190.63v35l-.19.19-1.07,1.07q-8.25,8.31-16.52,16.62V209.1l1.28-1.33L463,190.63m1.8-4.46L463,188l-17.8,18.51-1.78,1.85v39.48l1.78-1.79q8.91-9,17.8-17.92l1.79-1.79V186.17Z"/><path class="cls-5" d="M502.15,149.91V186.2l-.36.36-.89.9-8.9,8.95-7.62,7.67V168.39l1.28-1.33,16.49-17.15m1.8-4.45-1.78,1.84-17.81,18.51-1.78,1.85v40.78l1.78-1.79,17.81-17.92,1.78-1.79V145.46Z"/><path class="cls-5" d="M482.57,170.27v35.64l-.38.38-.88.88-8.91,9-7.61,7.65v-35l1.28-1.32,16.5-17.15m1.79-4.46-1.78,1.85-17.8,18.51L463,188v40.13l1.79-1.79,17.8-17.92,1.78-1.79V165.81Z"/><path class="cls-5" d="M523.56,157.32l2.85,3.2a.94.94,0,0,1,0,1.3l-2,2.06-.77.78v-7.34m-1.8-4.72V169l1.78-1.8,4.11-4.13a2.74,2.74,0,0,0,.1-3.77c-1.4-1.57-2.8-3.15-4.21-4.72l-1.78-2Z"/><path class="cls-5" d="M509.81,142.38a.94.94,0,0,1,.71.32l4.9,5.5c1.67,1.86,3.33,3.73,5,5.6l.89,1,.43.48v11.2l-.37.38-.89.89-8.87,8.93L504,184.37V148l1.28-1.33,3.88-4a.94.94,0,0,1,.68-.29m0-1.8a2.77,2.77,0,0,0-2,.84l-3.88,4-1.78,1.84v41.43l1.78-1.79L521.76,169l1.78-1.8V154.6l-1.78-2-9.9-11.1a2.75,2.75,0,0,0-2.05-.92Z"/><path class="cls-5" d="M166.65,211l16.5,17.14,1.27,1.33v9.89L183,241.21l-4.09,5.4c-1.36,1.81-2.73,3.61-4.1,5.42a.92.92,0,0,1-.75.37.91.91,0,0,1-.67-.28l-3.77-3.79-1.72-1.73-.9-.9-.36-.37V211m-1.8-4.46v39.54l1.78,1.79,5.49,5.53a2.75,2.75,0,0,0,4.13-.27l8.19-10.82,1.78-2.35V228.73l-1.78-1.84-17.81-18.51-1.78-1.85Z"/><path class="cls-5" d="M186.24,231.34l1.81,1.89a1,1,0,0,1,.07,1.23l-1.67,2.2-.21.29v-5.61m-1.8-4.45V242.3l1.78-2.35,3.34-4.41a2.75,2.75,0,0,0-.22-3.56l-3.12-3.25-1.78-1.84Z"/><path class="cls-5" d="M127.47,170.27,144,187.42l1.28,1.32v35l-7.62-7.65q-4.44-4.48-8.9-9l-.89-.9-.37-.37V170.27m-1.8-4.46v40.84l1.79,1.79,17.8,17.92c.6.6,1.18,1.2,1.78,1.79V188l-1.78-1.85-17.8-18.51-1.79-1.85Z"/><path class="cls-5" d="M147.06,190.63l16.49,17.14,1.28,1.33v34.4l-16.52-16.63c-.36-.35-.71-.71-1.06-1.06l-.19-.19v-35m-1.8-4.46v40.19c.6.6,1.18,1.2,1.78,1.79l17.81,17.92,1.78,1.79V208.38l-1.78-1.85L147,188l-1.78-1.85Z"/><path class="cls-5" d="M107.88,149.91l16.5,17.15,1.28,1.33v35.69L118,196.41l-8.9-8.95-.89-.89-.37-.37V149.91m-1.79-4.45v41.48l1.78,1.79,17.8,17.92,1.79,1.79V167.66l-1.79-1.85-17.8-18.51-1.78-1.84Z"/><path class="cls-5" d="M127.47,170.27,144,187.42l1.28,1.32v35l-7.62-7.65q-4.44-4.48-8.9-9l-.89-.9-.37-.37V170.27m-1.8-4.46v40.84l1.79,1.79,17.8,17.92c.6.6,1.18,1.2,1.78,1.79V188l-1.78-1.85-17.8-18.51-1.79-1.85Z"/><path class="cls-5" d="M86.48,157.32v7.34l-.78-.78-2-2.06a.94.94,0,0,1,0-1.3l2.85-3.2m1.8-4.72-1.78,2-4.22,4.72a2.77,2.77,0,0,0,.1,3.77c1.38,1.37,2.75,2.76,4.12,4.13l1.78,1.8V152.6Z"/><path class="cls-5" d="M100.22,142.38a1,1,0,0,1,.69.29l3.88,4,1.28,1.32v36.34l-7.65-7.7-8.86-8.92-.89-.89-.37-.38v-11.2l.43-.49.89-1,5-5.61,4.9-5.5a1,1,0,0,1,.7-.31m0-1.8a2.72,2.72,0,0,0-2,.92l-9.9,11.1-1.78,2v12.62l1.78,1.8,17.81,17.92,1.78,1.79V147.3l-1.78-1.84-3.89-4a2.74,2.74,0,0,0-2-.84Z"/><path class="cls-1" d="M151.31,547.59q2-10.5,3.71-23.39T157.87,500c2.37,0,4.34.07,5.93.07,1.07,0,2.78,0,5.14-.07q-1,6.28-2.1,14.3l-1.94,14q-.84,6-1.5,11.93l6,.07q8.46,0,11.11,0c1.78,0,3.53-.1,5.26-.19q-.61,3.42-1.22,7.57-9.17-.08-15.69-.07l-11,0Z"/><path class="cls-1" d="M184.86,548h-.31c-6.09-.05-11.36-.07-15.69-.07l-18,.07.08-.43c1.3-7,2.55-14.83,3.71-23.37s2.12-16.7,2.85-24.21l0-.33h.33c2.33.05,4.32.07,5.93.07,1.1,0,2.82,0,5.13-.07h.43l-.07.43c-.66,4.15-1.37,9-2.1,14.29l-1.93,14c-.54,3.85-1,7.72-1.46,11.53l5.61.06c5.59,0,9.32,0,11.1,0s3.51-.1,5.24-.19l.46,0-.09.45c-.4,2.25-.81,4.79-1.21,7.56Zm-26.67-47.61c-.72,7.43-1.67,15.47-2.81,23.91s-2.37,16.1-3.64,23l17.12-.06c4.25,0,9.43,0,15.38.06.36-2.47.73-4.76,1.1-6.82-1.59.08-3.21.14-4.82.17-1.78,0-5.52,0-11.12,0l-6.4-.07,0-.4c.44-3.93,1-7.95,1.51-11.94l1.93-14c.7-5.15,1.38-9.82,2-13.88-2.09,0-3.68.06-4.71.06C162.26,500.4,160.38,500.38,158.19,500.34Z"/><path class="cls-1" d="M196,500c2.69,0,4.51.07,5.46.07,1.19,0,3,0,5.3-.07l-4.11,28.15q-.07.5-.12,1-.42,4.71.72,7.08a6.94,6.94,0,0,0,3.64,3.45,14.7,14.7,0,0,0,5.86,1.08,17.16,17.16,0,0,0,4.09-.48,13.12,13.12,0,0,0,3-1.16,9.94,9.94,0,0,0,2-1.46,10.44,10.44,0,0,0,1.77-2.34,11.42,11.42,0,0,0,1.23-2.93q.67-2.48,1.6-8.61l1.8-12.14q.72-5.31,1.41-11.69c2.62,0,4.57.07,5.85.07l5.09-.07L238,516.79l-1.87,13.36a38,38,0,0,1-1.58,7,16.16,16.16,0,0,1-1.89,3.56,14.11,14.11,0,0,1-2.56,2.62,19.61,19.61,0,0,1-4.31,2.58,25.86,25.86,0,0,1-5.7,1.78,45.92,45.92,0,0,1-8.41.76,38.81,38.81,0,0,1-8.16-.8,20.67,20.67,0,0,1-5.83-2.16,13.59,13.59,0,0,1-4.05-3.28,9.73,9.73,0,0,1-1.74-3.66,15.73,15.73,0,0,1-.4-5.45c.07-.69.17-1.59.31-2.7s.35-2.53.62-4.27l.75-4.92q.38-2.29,1-6.77l1-7.56C195.45,504.78,195.73,502.48,196,500Z"/><path class="cls-1" d="M211.68,548.78a39.47,39.47,0,0,1-8.23-.81,21.27,21.27,0,0,1-5.93-2.2,13.77,13.77,0,0,1-4.16-3.37,10.13,10.13,0,0,1-1.81-3.79,16,16,0,0,1-.4-5.57c.06-.69.16-1.61.3-2.71s.36-2.56.63-4.29l.74-4.91c.26-1.54.58-3.82,1-6.76l1-7.57c.27-2.07.56-4.38.84-6.87l0-.32H196c2.68.05,4.5.07,5.45.07,1.21,0,3,0,5.3-.07h.42L203,528.17c-.05.33-.09.67-.12,1-.27,3.06,0,5.38.69,6.89a6.55,6.55,0,0,0,3.45,3.28,14.38,14.38,0,0,0,5.72,1,16.92,16.92,0,0,0,4-.47,13.26,13.26,0,0,0,2.88-1.12,9.86,9.86,0,0,0,1.9-1.41,10.19,10.19,0,0,0,1.71-2.25,12,12,0,0,0,1.2-2.85c.44-1.64,1-4.52,1.58-8.58l1.81-12.13c.47-3.51.94-7.44,1.4-11.68l0-.32h.33c2.56.05,4.53.07,5.84.07l5.51-.07-2.62,17.23-1.86,13.36a37.32,37.32,0,0,1-1.61,7,16.64,16.64,0,0,1-1.92,3.64,14.61,14.61,0,0,1-2.64,2.69,20.28,20.28,0,0,1-4.38,2.63,26,26,0,0,1-5.78,1.8A46.76,46.76,0,0,1,211.68,548.78Zm-15.34-48.44c-.27,2.37-.54,4.57-.81,6.55l-1,7.57c-.4,3-.73,5.24-1,6.78l-.75,4.91c-.27,1.72-.48,3.16-.62,4.27s-.25,2-.31,2.69a15.19,15.19,0,0,0,.39,5.31,9.62,9.62,0,0,0,1.67,3.54,13.45,13.45,0,0,0,4,3.18,20.59,20.59,0,0,0,5.73,2.13,38.72,38.72,0,0,0,8.08.79,45.16,45.16,0,0,0,8.34-.76,24.63,24.63,0,0,0,5.62-1.75,19.3,19.3,0,0,0,4.23-2.54,13.77,13.77,0,0,0,2.51-2.55,15.51,15.51,0,0,0,1.83-3.47,38,38,0,0,0,1.57-6.9l1.86-13.35,2.49-16.4-4.67.06h0c-1.26,0-3.12,0-5.52-.06-.46,4.12-.92,7.94-1.38,11.37l-1.8,12.14c-.62,4.08-1.16,7-1.61,8.66a12.14,12.14,0,0,1-1.27,3,9.88,9.88,0,0,1-3.88,3.93,13.61,13.61,0,0,1-3.05,1.18,17,17,0,0,1-4.18.5,15.08,15.08,0,0,1-6-1.11,7.27,7.27,0,0,1-3.82-3.62c-.79-1.64-1-4.08-.76-7.27,0-.38.07-.74.13-1.08l4.05-27.72c-2.11,0-3.75.06-4.89.06C200.57,500.4,198.86,500.38,196.34,500.34Z"/><path class="cls-1" d="M243.6,547.59l2-12.14,2-15.18,1.77-15.1c.08-.65.24-2.38.49-5.2q3.87.07,7.28.07,2.55,0,6.73-.1t7.21-.11a55.28,55.28,0,0,1,7.58.49,18.06,18.06,0,0,1,6,1.83,15,15,0,0,1,4.24,3.37,16.25,16.25,0,0,1,2.74,4.48,21.46,21.46,0,0,1,1.39,5.48,29.32,29.32,0,0,1,.11,6.15,33.57,33.57,0,0,1-3.08,11.43,24.81,24.81,0,0,1-7,9,22,22,0,0,1-9.52,4.55,58.54,58.54,0,0,1-11.44,1l-11.86-.07C249.53,547.52,247.3,547.54,243.6,547.59ZM255,540.16c1.9.09,3.78.14,5.64.14a51.66,51.66,0,0,0,5.91-.32,23.69,23.69,0,0,0,4.75-1,13.76,13.76,0,0,0,4.13-2.39,16.58,16.58,0,0,0,3.57-4,21.4,21.4,0,0,0,2.36-5,25.21,25.21,0,0,0,1.16-5.61,17.61,17.61,0,0,0-1-8.6,9.67,9.67,0,0,0-4.27-4.85q-2.78-1.49-8.85-1.48c-2.63,0-5.64.05-9.05.14Z"/><path class="cls-1" d="M243.18,548l2.07-12.56,2-15.16,1.77-15.1c.08-.66.25-2.4.49-5.19l0-.33h.34c2.52.05,5,.07,7.27.07,1.71,0,4,0,6.72-.1s5.23-.11,7.22-.11a56,56,0,0,1,7.63.49,18.09,18.09,0,0,1,6.09,1.88,15.36,15.36,0,0,1,4.34,3.44,17.17,17.17,0,0,1,2.81,4.58,22.28,22.28,0,0,1,1.41,5.57,29.5,29.5,0,0,1,.11,6.24,34,34,0,0,1-3.11,11.54,25.27,25.27,0,0,1-7.08,9.09,22.32,22.32,0,0,1-9.67,4.63,60.16,60.16,0,0,1-11.51,1l-11.86-.07q-1.11,0-6.66.07Zm7.09-.79,11.86.07a58.69,58.69,0,0,0,11.37-1,21.74,21.74,0,0,0,9.36-4.48,24.57,24.57,0,0,0,6.88-8.84,33.49,33.49,0,0,0,3-11.3,28.67,28.67,0,0,0-.11-6.08,21.09,21.09,0,0,0-1.36-5.38,16,16,0,0,0-2.69-4.39,14.48,14.48,0,0,0-4.14-3.28,17.51,17.51,0,0,0-5.84-1.79,54.53,54.53,0,0,0-7.53-.49c-2,0-4.41,0-7.2.11s-5,.1-6.74.1c-2.2,0-4.54,0-7-.06-.23,2.6-.38,4.24-.46,4.87L248,520.32l-2,15.18L244,547.22Zm10.32-6.5c-1.85,0-3.76,0-5.65-.14l-.39,0L259,506.88h.3c3.41-.09,6.46-.14,9.06-.14,4.09,0,7.12.51,9,1.52a10.13,10.13,0,0,1,4.43,5,18,18,0,0,1,1.05,8.78,25,25,0,0,1-1.17,5.7,22.07,22.07,0,0,1-2.39,5.09,17.51,17.51,0,0,1-3.65,4,14.18,14.18,0,0,1-4.25,2.45,23.53,23.53,0,0,1-4.82,1A52.51,52.51,0,0,1,260.59,540.66Zm-5.23-.85a72,72,0,0,0,11.1-.19,22.76,22.76,0,0,0,4.67-1,13.48,13.48,0,0,0,4-2.33,16.32,16.32,0,0,0,3.5-3.88,21,21,0,0,0,2.32-4.92,25.06,25.06,0,0,0,1.14-5.53,17.38,17.38,0,0,0-1-8.42,9.34,9.34,0,0,0-4.11-4.68c-1.79-1-4.71-1.44-8.68-1.44-2.52,0-5.45,0-8.73.13Z"/><path class="cls-1" d="M297.56,547.59q1.89-12,3.51-24.61t2.21-19.27l.29-3.74,5.82.07,5.35-.07q-3,18.36-6,47.62l-5.13-.07C302.78,547.52,300.76,547.54,297.56,547.59Z"/><path class="cls-1" d="M297.14,548l.07-.42c1.25-8,2.43-16.24,3.5-24.6s1.82-14.85,2.21-19.26l.32-4.06,6.16.07,5.34-.07h.43l-.07.42c-2,12.16-4,28.17-6,47.59l0,.33-5.45-.07q-1.29,0-6.07.07Zm6.5-.79,4.8.06c1.92-19.06,3.9-34.83,5.87-46.88l-4.92.06-5.49-.06-.26,3.39c-.39,4.42-1.13,10.91-2.21,19.29-1.06,8.22-2.22,16.36-3.44,24.2Z"/><path class="cls-1" d="M317.62,547.59l1.6-7.89L324,512l1.86-12c3.32,0,5.74.07,7.28.07q1.85,0,6.73-.07c.2,1.89.37,3.22.48,4s.37,2.06.75,3.81.89,3.86,1.51,6.34q1.37,5.65,2.35,11.17l1.78,10,5.79-12.8,8.24-16.64c.28-.56.58-1.2.88-1.93s.84-2,1.58-3.93c2.77,0,5.23.07,7.4.07q2.16,0,6.91-.07-1.37,10-2.67,22.21T373,540.33q-.25,2.89-.57,7.26c-2.3-.05-3.86-.07-4.7-.07-1.21,0-2.82,0-4.82.07.34-2.38.61-4.33.79-5.86l2.4-20.76c.33-2.93.61-5.81.86-8.65l.21-2.82-15.79,33.94-1.85,4.15c-2.27-.05-3.82-.07-4.66-.07-1.05,0-2.7,0-4.94.07l-4.13-21.49c-.14-.77-.49-2.37-1-4.81l-1.54-7.12c-.15-.67-.26-1.23-.33-1.66s-.21-1.39-.43-2.87l-.84,4.46q-.36,2.13-1.15,7.12l-3.25,21.62c-.14,1.07-.32,2.65-.52,4.75l-4.49-.07C321.43,547.52,319.9,547.54,317.62,547.59Z"/><path class="cls-1" d="M362.48,548l.06-.43c.34-2.32.6-4.29.79-5.85l2.4-20.75c.33-2.94.62-5.84.86-8.64l.07-.85-15,32.15L349.75,548h-.24c-2.26-.05-3.81-.07-4.65-.07-1,0-2.7,0-4.94.07h-.3l-4.18-21.78c-.14-.77-.48-2.33-1-4.81l-1.54-7.11c-.16-.68-.27-1.24-.34-1.68,0-.17-.06-.43-.11-.77l-.45,2.37q-.36,2.12-1.14,7.1l-3.26,21.63c-.13,1.05-.3,2.59-.51,4.72l0,.33-4.82-.07c-.76,0-2.28,0-4.56.07h-.45l1.69-8.33L323.6,512l1.9-12.34h.32c3.25.05,5.69.07,7.27.07,1.27,0,3.53,0,6.72-.07h.33l0,.32c.21,1.88.37,3.22.49,4s.36,2.05.75,3.78.88,3.86,1.5,6.34c.91,3.76,1.7,7.52,2.35,11.18l1.58,8.83,5.31-11.74,8.25-16.65c.28-.56.57-1.2.87-1.91s.83-2,1.58-3.92l.09-.23h.25c2.71.05,5.19.07,7.39.07,1.48,0,3.8,0,6.91-.07h.42l-.06.41c-.91,6.66-1.81,14.12-2.67,22.19s-1.48,14.16-1.83,18.15c-.17,1.95-.36,4.39-.57,7.25l0,.34h-.34c-2.3-.05-3.87-.07-4.7-.07-1.2,0-2.82,0-4.81.07Zm-17.62-.8c.81,0,2.29,0,4.42.06l1.76-3.93,16.63-35.74-.36,4.8c-.24,2.81-.53,5.72-.86,8.66l-2.4,20.76c-.18,1.47-.42,3.3-.73,5.45,1.8,0,3.28-.06,4.4-.06.79,0,2.25,0,4.37.06.19-2.72.37-5,.54-6.92.35-4,1-10.11,1.83-18.16s1.73-15.24,2.62-21.8c-2.9,0-5.09.06-6.5.06-2.13,0-4.54,0-7.15-.06-.7,1.76-1.2,3-1.49,3.7s-.61,1.38-.9,1.95l-8.24,16.64-6.26,13.85-2-11.12c-.65-3.64-1.44-7.39-2.34-11.14-.62-2.49-1.13-4.62-1.51-6.36s-.64-3-.75-3.82-.27-2-.46-3.7c-3,0-5.17.06-6.4.06-1.53,0-3.87,0-7-.06l-1.81,11.72-4.73,27.7-1.52,7.46q3.06-.06,4.14-.06l4.16.06c.2-2,.36-3.42.49-4.43l3.25-21.63q.79-5,1.15-7.12l1.25-6.58.31,2.12c.22,1.49.36,2.45.43,2.88s.17,1,.32,1.63l1.54,7.12c.56,2.48.91,4,1,4.82l4.06,21.19C342.3,547.18,343.86,547.16,344.86,547.16Z"/><path class="cls-1" d="M387.9,500c2.69,0,4.51.07,5.47.07,1.18,0,2.95,0,5.3-.07l-4.11,28.15c-.06.33-.1.68-.13,1-.28,3.14,0,5.5.72,7.08a6.94,6.94,0,0,0,3.64,3.45,14.7,14.7,0,0,0,5.86,1.08,17.16,17.16,0,0,0,4.09-.48,13.12,13.12,0,0,0,3-1.16,9.94,9.94,0,0,0,2-1.46,10.15,10.15,0,0,0,1.77-2.34,11.8,11.8,0,0,0,1.24-2.93q.66-2.48,1.59-8.61l1.8-12.14q.72-5.31,1.41-11.69c2.62,0,4.57.07,5.85.07l5.09-.07-2.55,16.82L428,530.15a38,38,0,0,1-1.58,7,16.13,16.13,0,0,1-1.88,3.56A14.48,14.48,0,0,1,422,543.3a19.61,19.61,0,0,1-4.31,2.58,25.7,25.7,0,0,1-5.7,1.78,45.81,45.81,0,0,1-8.4.76,39,39,0,0,1-8.17-.8,20.6,20.6,0,0,1-5.82-2.16,13.64,13.64,0,0,1-4.06-3.28,9.89,9.89,0,0,1-1.74-3.66,15.5,15.5,0,0,1-.39-5.45q.09-1,.3-2.7c.15-1.1.35-2.53.62-4.27l.75-4.92q.38-2.29,1-6.77l1-7.56C387.33,504.78,387.61,502.48,387.9,500Z"/><path class="cls-1" d="M403.57,548.78a39.5,39.5,0,0,1-8.24-.81,21.27,21.27,0,0,1-5.93-2.2,14,14,0,0,1-4.16-3.37,10.13,10.13,0,0,1-1.81-3.79A16.19,16.19,0,0,1,383,533c.06-.69.16-1.61.3-2.71s.36-2.55.63-4.29l.74-4.91c.26-1.57.59-3.84,1-6.76l1-7.57c.27-2.09.56-4.4.85-6.87l0-.32h.33c2.69.05,4.5.07,5.46.07,1.21,0,3,0,5.29-.07h.42l-4.17,28.57c-.05.33-.09.67-.12,1-.27,3.06,0,5.38.69,6.89a6.57,6.57,0,0,0,3.46,3.28,14.33,14.33,0,0,0,5.71,1,16.92,16.92,0,0,0,4-.47,12.87,12.87,0,0,0,2.88-1.12,9.56,9.56,0,0,0,1.9-1.41,10.19,10.19,0,0,0,1.71-2.25,11.86,11.86,0,0,0,1.2-2.85c.44-1.63,1-4.52,1.58-8.58l1.81-12.13c.47-3.52.94-7.45,1.41-11.68l0-.32h.33c2.57.05,4.53.07,5.84.07l5.51-.07-2.61,17.23-1.87,13.36a37.51,37.51,0,0,1-1.61,7,16.42,16.42,0,0,1-1.92,3.64,14.93,14.93,0,0,1-2.64,2.69,20.28,20.28,0,0,1-4.38,2.63A25.53,25.53,0,0,1,412,548,46.74,46.74,0,0,1,403.57,548.78Zm-15.35-48.44c-.27,2.35-.54,4.56-.81,6.55l-1,7.57c-.4,2.93-.73,5.21-1,6.78l-.75,4.91c-.27,1.74-.48,3.17-.62,4.27s-.24,2-.3,2.69a15.18,15.18,0,0,0,.38,5.31A9.54,9.54,0,0,0,385.8,542a13.45,13.45,0,0,0,3.95,3.18,20.59,20.59,0,0,0,5.73,2.13,38.75,38.75,0,0,0,8.09.79,45.13,45.13,0,0,0,8.33-.76,24.63,24.63,0,0,0,5.62-1.75,19.3,19.3,0,0,0,4.23-2.54,13.46,13.46,0,0,0,2.51-2.55,15.51,15.51,0,0,0,1.83-3.47,37.38,37.38,0,0,0,1.57-6.9l1.86-13.35,2.49-16.4-4.67.06h0c-1.26,0-3.12,0-5.52-.06-.46,4.11-.92,7.93-1.38,11.37l-1.8,12.14c-.62,4.09-1.16,7-1.61,8.66a12.14,12.14,0,0,1-1.27,3,9.88,9.88,0,0,1-3.88,3.93,13.61,13.61,0,0,1-3.05,1.18,17,17,0,0,1-4.18.5,15.08,15.08,0,0,1-6-1.11,7.31,7.31,0,0,1-3.82-3.62c-.78-1.64-1-4.08-.76-7.27,0-.38.08-.74.13-1.08l4.05-27.72c-2.1,0-3.74.06-4.88.06C392.45,500.4,390.74,500.38,388.22,500.34Z"/><path class="cls-1" d="M434.32,546.57q.18-5.3,0-8.65A28.68,28.68,0,0,0,446.49,541a13.11,13.11,0,0,0,4.23-.68,6.55,6.55,0,0,0,3-1.92,4.93,4.93,0,0,0,1.17-2.77,4.75,4.75,0,0,0-.26-2.13,8.75,8.75,0,0,0-2-2.69q-1.83-1.92-6.57-6.31-2.25-2.13-3.1-3a21.55,21.55,0,0,1-2.9-3.57,10.25,10.25,0,0,1-1.32-3.16,10.83,10.83,0,0,1-.2-3.35,12.16,12.16,0,0,1,2.37-6.15,13.64,13.64,0,0,1,5.87-4.5,23.74,23.74,0,0,1,9.33-1.62,57,57,0,0,1,11.13,1.22c-.1,2.42-.11,5.18,0,8.3a26.56,26.56,0,0,0-9.84-2.09,10,10,0,0,0-5.73,1.55,4.93,4.93,0,0,0-2.49,3.61,4.67,4.67,0,0,0,.05,1.17,5,5,0,0,0,.35,1.18,8.11,8.11,0,0,0,1,1.5,16.11,16.11,0,0,0,2.09,2.17c.92.82,1.72,1.49,2.38,2l4,3.91a36,36,0,0,1,2.7,2.65,23.48,23.48,0,0,1,2,2.48,11.48,11.48,0,0,1,1.25,2.26,10.11,10.11,0,0,1,.59,2.22,10.5,10.5,0,0,1,.05,2.39,12.73,12.73,0,0,1-1.84,5.53,13,13,0,0,1-4.29,4.27,17.81,17.81,0,0,1-5.78,2.32,31.62,31.62,0,0,1-6.47.64A41.52,41.52,0,0,1,442,548C440.05,547.78,437.49,547.3,434.32,546.57Z"/><path class="cls-1" d="M447.17,548.78a42,42,0,0,1-5.21-.38c-2-.26-4.56-.75-7.72-1.47l-.29-.07v-.3c.12-3.51.13-6.41,0-8.62l0-.6.55.26a28.49,28.49,0,0,0,12,3.07,12.69,12.69,0,0,0,4.11-.66,6.29,6.29,0,0,0,2.87-1.81,4.6,4.6,0,0,0,1.08-2.58,4.28,4.28,0,0,0-.23-2,8.44,8.44,0,0,0-1.91-2.56c-1.21-1.28-3.42-3.39-6.55-6.31-1.51-1.42-2.56-2.44-3.12-3a22.6,22.6,0,0,1-2.94-3.63,11,11,0,0,1-1.38-3.27,11.24,11.24,0,0,1-.2-3.46,12.61,12.61,0,0,1,2.44-6.33,14,14,0,0,1,6-4.62c4.84-2.08,12-2.15,20.67-.43l.3.06v.31c-.1,2.4-.11,5.19,0,8.28v.55l-.5-.21a26.5,26.5,0,0,0-9.71-2.06,9.77,9.77,0,0,0-5.53,1.49,4.6,4.6,0,0,0-2.33,3.34,4.42,4.42,0,0,0,.05,1.08,4.92,4.92,0,0,0,.32,1.1,8.32,8.32,0,0,0,.91,1.43,15.94,15.94,0,0,0,2,2.11c.92.81,1.71,1.48,2.36,2l4,3.93a36,36,0,0,1,2.7,2.67,24.6,24.6,0,0,1,2,2.51,11.67,11.67,0,0,1,1.28,2.34,10.3,10.3,0,0,1,.62,2.3,11.23,11.23,0,0,1,.05,2.47,13,13,0,0,1-1.9,5.68,13.35,13.35,0,0,1-4.39,4.39,18.16,18.16,0,0,1-5.91,2.37A32.31,32.31,0,0,1,447.17,548.78Zm-12.48-2.49c3,.68,5.48,1.15,7.36,1.39a40.66,40.66,0,0,0,5.12.38,31,31,0,0,0,6.4-.64,17.17,17.17,0,0,0,5.66-2.27A12.72,12.72,0,0,0,463.4,541a12.31,12.31,0,0,0,1.79-5.38,10.3,10.3,0,0,0-.05-2.3,9,9,0,0,0-.57-2.14,10.77,10.77,0,0,0-1.21-2.19,21.81,21.81,0,0,0-2-2.44,35.17,35.17,0,0,0-2.67-2.62l-4-3.92c-.63-.49-1.44-1.17-2.37-2a16.92,16.92,0,0,1-2.14-2.21,8.83,8.83,0,0,1-1-1.57,5.55,5.55,0,0,1-.43-2.53,5.29,5.29,0,0,1,2.65-3.88,10.47,10.47,0,0,1,5.93-1.62,26.67,26.67,0,0,1,9.47,1.93c-.06-2.76-.05-5.27,0-7.48-8.39-1.63-15.3-1.55-20,.44a13.41,13.41,0,0,0-5.72,4.38,11.89,11.89,0,0,0-2.3,6,10.39,10.39,0,0,0,.19,3.23,9.8,9.8,0,0,0,1.28,3.05,21.21,21.21,0,0,0,2.85,3.51c.56.6,1.6,1.62,3.09,3,3.15,2.92,5.36,5.05,6.58,6.32a9,9,0,0,1,2.05,2.8,5.09,5.09,0,0,1,.29,2.3,5.35,5.35,0,0,1-1.25,3,7,7,0,0,1-3.19,2,13.52,13.52,0,0,1-4.34.7,28.57,28.57,0,0,1-11.76-2.89C434.8,540.58,434.79,543.19,434.69,546.29Z"/></g></g></svg>