<svg xmlns="http://www.w3.org/2000/svg" viewBox="0 0 298.63 323.8"><defs><style>.cls-1,.cls-2{fill:none;}.cls-2{stroke:#000;stroke-linecap:round;stroke-miterlimit:10;stroke-width:12px;}</style></defs><g id="Layer_2" data-name="Layer 2"><g id="Layer_1-2" data-name="Layer 1"><path d="M181.38,291.24a1.31,1.31,0,0,1,1.31,1.34,32.55,32.55,0,0,1-65,0,1.3,1.3,0,0,1,1.3-1.34Z"/><path d="M284.07,263.49A18.05,18.05,0,0,1,266,281.54H33.77a18.05,18.05,0,0,1,0-36.1,15.57,15.57,0,0,0,15.58-15.58V136.68h.55A100.31,100.31,0,0,1,127.42,39a22.08,22.08,0,0,1-.41-4.33,23.17,23.17,0,0,1,46.33,0,22.87,22.87,0,0,1-.41,4.33,100.32,100.32,0,0,1,77.51,97.67v93.18A15.57,15.57,0,0,0,266,245.44,18,18,0,0,1,284.07,263.49Z"/><line class="cls-1" x1="182.71" y1="291.97" x2="117.61" y2="291.97"/><path class="cls-2" d="M207.52,28.3a119.34,119.34,0,0,1,60.89,82.94"/><path class="cls-2" d="M221,7.35a140.36,140.36,0,0,1,71.66,97.59"/><path class="cls-2" d="M93.26,28.3a121.7,121.7,0,0,0-61.48,81.78"/><path class="cls-2" d="M80.24,6A148.58,148.58,0,0,0,6,106.34"/></g></g></svg>