<svg xmlns="http://www.w3.org/2000/svg" viewBox="0 0 305.79 331.69"><defs><style>.cls-1{fill:#fff;}</style></defs><g id="Layer_2" data-name="Layer 2"><g id="Layer_1-2" data-name="Layer 1"><path d="M305.45,150.69l-21.3,10L218.5,191.53,134.37,231,95.12,249.47h-30L56.48,231,45.87,208.46.06,110.91a.58.58,0,0,1,.28-.78L234.71.05a.59.59,0,0,1,.78.29L305.73,149.9A.59.59,0,0,1,305.45,150.69Z"/><circle class="cls-1" cx="152.9" cy="130.41" r="60.68"/><path d="M173.06,138.11a39.34,39.34,0,0,1-8.84,6.19,17.84,17.84,0,0,1-8.8,1.86,12.29,12.29,0,0,1-7.43-3.11l18.27-8.59-1.18-5.31-20.42,9.59-.46-1a22.3,22.3,0,0,1-1-2.64l21-9.86L163.05,120l-20.52,9.63a14.68,14.68,0,0,1,3-8,19.11,19.11,0,0,1,7.22-5.71,34.56,34.56,0,0,1,9.48-2.45l-3.5-6.49a54.88,54.88,0,0,0-10,3.36,27.68,27.68,0,0,0-11.92,9.82,19.73,19.73,0,0,0-3,13.61l-3.19,1.51,1.15,5.32,3.31-1.55a29.58,29.58,0,0,0,1.24,3.08l.24.51-2,1,1.15,5.32,3.77-1.76a18,18,0,0,0,11.71,6.64,25.71,25.71,0,0,0,14.6-2.61,63.4,63.4,0,0,0,9.46-5.72Z"/><path d="M284.36,160.69H67.3a21.49,21.49,0,0,0-21.43,21.42v9.42H305.79v-9.42A21.49,21.49,0,0,0,284.36,160.69ZM45.87,231v79.23A21.49,21.49,0,0,0,67.3,331.69H284.36a21.49,21.49,0,0,0,21.43-21.42V231Zm87.84,18.43a.92.92,0,0,1,.93.92v13.75a.93.93,0,0,1-.93.94H63.49a.94.94,0,0,1-.93-.94V250.39a.93.93,0,0,1,.93-.92Zm36.18,42.18a.94.94,0,0,1-.94.93H63.49a.93.93,0,0,1-.93-.93V277.9a.94.94,0,0,1,.93-.94H169a.94.94,0,0,1,.94.94Zm30.3-27.51a.94.94,0,0,1-.94.94H146a.94.94,0,0,1-.93-.94V250.39a.93.93,0,0,1,.93-.92h53.26a.93.93,0,0,1,.94.92Z"/><rect class="cls-1" x="45.87" y="191.53" width="259.92" height="39.51"/></g></g></svg>