<svg xmlns="http://www.w3.org/2000/svg" viewBox="0 0 307.86 202.4"><g id="Layer_2" data-name="Layer 2"><g id="Layer_1-2" data-name="Layer 1"><path d="M292.65,2.8,154.9,111.07a1.59,1.59,0,0,1-1.94,0L15.21,2.8a1.57,1.57,0,0,1,1-2.8H291.69A1.57,1.57,0,0,1,292.65,2.8Z"/><path d="M118.09,103.26,2.53,194.05A1.57,1.57,0,0,1,0,192.82V11.25A1.56,1.56,0,0,1,2.53,10L118.09,100.8A1.56,1.56,0,0,1,118.09,103.26Z"/><path d="M289.53,202.4H18.33a1.56,1.56,0,0,1-1-2.79l107.31-84.38a1.55,1.55,0,0,1,1.93,0L153,135.94a1.59,1.59,0,0,0,1.94,0l26.36-20.71a1.56,1.56,0,0,1,1.94,0l107.3,84.38A1.56,1.56,0,0,1,289.53,202.4Z"/><path d="M307.86,11.25V192.82a1.57,1.57,0,0,1-2.53,1.23L189.77,103.26a1.56,1.56,0,0,1,0-2.46L305.33,10A1.56,1.56,0,0,1,307.86,11.25Z"/></g></g></svg>