<svg xmlns="http://www.w3.org/2000/svg" viewBox="0 0 311.92 341.31"><defs><style>.cls-1,.cls-2{stroke:#000;stroke-miterlimit:10;}.cls-2{stroke-width:4px;}</style></defs><g id="Layer_2" data-name="Layer 2"><g id="Layer_1-2" data-name="Layer 1"><path class="cls-1" d="M236.25,72.68v85.79a6.77,6.77,0,0,1-2,4.81l-7.15,7.16a1.66,1.66,0,0,1-2.84-1.18V72.68a13.59,13.59,0,0,0-13.55-13.55H191.17v-12h19.54A25.55,25.55,0,0,1,236.25,72.68Z"/><path class="cls-1" d="M225.33,278.55l8.67-3.27a1.66,1.66,0,0,1,2.25,1.55v38.45a25.54,25.54,0,0,1-25.54,25.53H26A25.51,25.51,0,0,1,.5,315.3V72.68A25.54,25.54,0,0,1,26,47.14H47v12H26A13.52,13.52,0,0,0,12.49,72.65V315.28A13.58,13.58,0,0,0,26,328.83H210.71a13.59,13.59,0,0,0,13.55-13.55V280.11A1.68,1.68,0,0,1,225.33,278.55Z"/><path class="cls-2" d="M191.17,50.69V61a18.41,18.41,0,0,1-18.41,18.41H65.4A18.45,18.45,0,0,1,47,61V50.69A18.43,18.43,0,0,1,65.4,32.28H85.24A3.8,3.8,0,0,0,89,28.87a30.28,30.28,0,0,1,60.18,0,3.8,3.8,0,0,0,3.75,3.41h19.84A18.41,18.41,0,0,1,191.17,50.69Z"/><circle class="cls-1" cx="119.08" cy="32.28" r="5.68"/><path class="cls-1" d="M307,191.9l-6.68,6.7L257.6,155.82l6.68-6.66a14.88,14.88,0,0,1,21.07,0L307,170.85A14.85,14.85,0,0,1,307,191.9Z"/><polygon class="cls-1" points="296.55 202.63 236.74 262.42 236.24 262.62 224.26 267.13 199.98 276.32 173.45 282.71 179.86 256.22 193.78 219.42 224.26 188.96 236.24 176.97 253.57 159.63 253.68 159.76 296.44 202.5 296.55 202.63"/><path class="cls-1" d="M51.64,154.77a2.74,2.74,0,0,1-.41-.34,1,1,0,0,1-.26-.33Z"/><path class="cls-1" d="M99.19,103.07a6.86,6.86,0,0,1-2,4.87L59.89,145.23a6.81,6.81,0,0,1-9,.67l-1.34-1.34-18-18a6.82,6.82,0,0,1,0-9.75,6.92,6.92,0,0,1,9.75,0l13.77,13.76L87.43,98.19a6.89,6.89,0,0,1,11.76,4.88Z"/><path class="cls-1" d="M98.3,178.87a6.88,6.88,0,0,1-2,4.88L59,221a6.82,6.82,0,0,1-9,.67l-1.33-1.34-18-18a6.76,6.76,0,0,1-2-4.88,6.83,6.83,0,0,1,2-4.88,7,7,0,0,1,9.76,0l13.76,13.77L86.54,174a6.89,6.89,0,0,1,11.76,4.87Z"/><path class="cls-1" d="M97.41,254.68a6.88,6.88,0,0,1-2,4.88L58.11,296.85a6.81,6.81,0,0,1-9,.67l-1.34-1.34-18-18a6.81,6.81,0,0,1,0-9.76,6.94,6.94,0,0,1,9.75,0l13.77,13.77,32.36-32.36a6.89,6.89,0,0,1,11.76,4.87Z"/><rect class="cls-1" x="113.39" y="117.64" width="82.76" height="10.83" rx="1.56"/><rect class="cls-1" x="113.39" y="273.38" width="46.88" height="10.83" rx="1.56"/><rect class="cls-1" x="113.39" y="194.55" width="82.76" height="10.83" rx="1.56"/><line class="cls-1" x1="257.6" y1="155.82" x2="300.36" y2="198.6"/></g></g></svg>