<svg xmlns="http://www.w3.org/2000/svg" viewBox="0 0 292.72 306.95"><defs><style>.cls-1{fill:#333;}</style></defs><g id="Layer_2" data-name="Layer 2"><g id="Layer_1-2" data-name="Layer 1"><path class="cls-1" d="M223.71,187.76a78.13,78.13,0,0,1,11.42,42.92c-1.08,41.08-34.43,74.76-75.5,76.22A78.48,78.48,0,0,1,135.5,304l-.08,0a78.46,78.46,0,0,1-33.67-19.6c-.85-.85-1.69-1.72-2.5-2.6a77.66,77.66,0,0,1,17.33-120.17l6.21-3.73h0l9.16-5.5L261.9,74.5l30.82,51Z"/><path d="M99.25,281.81a77.65,77.65,0,0,1,17.34-120.17L261.9,74.5,185.76,54.3,41.91,140.17l-.08,0-7,4.19-.08,0A78.32,78.32,0,0,0,0,209.57c0,36.11,21.41,65.54,54.65,74.62l3.21,1.05.22.05,3.44.83L135.42,304a78.46,78.46,0,0,1-33.67-19.6C100.9,283.56,100.06,282.69,99.25,281.81Zm35-171.07L165,119.15l-26.33,15.77-31.07-8.57Z"/><rect x="75.4" y="2.66" width="16.76" height="84.24" rx="3.85" transform="translate(-11.17 47.89) rotate(-30)"/><rect x="45.55" y="43.12" width="16.44" height="69.05" rx="3.78" transform="translate(-40.24 68.67) rotate(-49.84)"/><rect x="119.3" y="0.3" width="16.44" height="69.05" rx="3.78" transform="translate(-4.17 23.36) rotate(-10.3)"/></g></g></svg>