<svg xmlns="http://www.w3.org/2000/svg" viewBox="0 0 930.89 267.5"><defs><style>.cls-1,.cls-2{fill:#fff;}.cls-2{opacity:0.62;font-size:65px;font-family:ErasITC-Demi, Eras Demi ITC;font-weight:300;}</style></defs><g id="Layer_2" data-name="Layer 2"><g id="LUDIMUS"><path class="cls-1" d="M1.28,143.41Q7,112.56,12.18,74.68T20.55,3.5Q31,3.71,38,3.7q4.73,0,15.11-.2-3,18.45-6.18,42L41.23,86.63q-2.48,17.63-4.42,35.05l17.64.21q24.84,0,32.65-.16t15.45-.56q-1.8,10-3.59,22.24-26.94-.19-46.1-.2l-32.3.1Z"/><path class="cls-1" d="M99.88,144.48H99c-17.87-.13-33.38-.2-46.09-.2L0,144.48l.23-1.26c3.83-20.48,7.49-43.58,10.9-68.68S17.36,25.47,19.5,3.4l.09-1,1,0c6.83.13,12.68.2,17.41.2,3.23,0,8.3-.07,15.09-.2l1.27,0-.21,1.25c-2,12.2-4,26.33-6.17,42L42.28,86.77c-1.59,11.31-3,22.69-4.28,33.87l16.46.19c16.43,0,27.41-.06,32.62-.16s10.34-.29,15.41-.56l1.34-.07-.24,1.32c-1.18,6.61-2.39,14.08-3.58,22.21ZM21.51,4.58C19.39,26.41,16.6,50,13.23,74.83,9.89,99.44,6.3,122.15,2.55,142.35l50.3-.2c12.51,0,27.71.06,45.2.2,1.07-7.27,2.15-14,3.22-20-4.67.23-9.42.4-14.15.49-5.22.1-16.22.16-32.67.16l-18.82-.22.13-1.17c1.29-11.56,2.78-23.37,4.43-35.08l5.67-41.1c2.06-15.16,4.07-28.88,6-40.8C45.68,4.7,41,4.76,38,4.76,33.47,4.76,27.93,4.7,21.51,4.58Z"/><path class="cls-1" d="M132.68,3.5q11.85.21,16,.2c3.47,0,8.67-.06,15.57-.2L152.22,86.21c-.15,1-.27,2-.37,3.08q-1.2,13.84,2.13,20.81a20.35,20.35,0,0,0,10.7,10.15,43.27,43.27,0,0,0,17.2,3.17,49.4,49.4,0,0,0,12-1.43,39.13,39.13,0,0,0,8.71-3.38,29.9,29.9,0,0,0,5.81-4.31,30.34,30.34,0,0,0,5.21-6.87,34.64,34.64,0,0,0,3.63-8.61q2-7.27,4.69-25.31l5.29-35.67q2.08-15.59,4.15-34.34,11.54.21,17.17.2l15-.2L256,52.9l-5.48,39.26q-2.13,13.74-4.67,20.5a46.46,46.46,0,0,1-5.53,10.46,41.21,41.21,0,0,1-7.54,7.68,57.59,57.59,0,0,1-12.65,7.59,74.18,74.18,0,0,1-16.76,5.23,134.69,134.69,0,0,1-24.7,2.25,114.52,114.52,0,0,1-24-2.36,61,61,0,0,1-17.13-6.35,40.23,40.23,0,0,1-11.92-9.63,28.91,28.91,0,0,1-5.11-10.77,46.2,46.2,0,0,1-1.16-16q.27-3.08.9-7.94c.43-3.25,1-7.43,1.83-12.56l2.19-14.45q1.11-6.76,2.88-19.89l3-22.24Q131.39,14.57,132.68,3.5Z"/><path class="cls-1" d="M178.7,146.93a116.56,116.56,0,0,1-24.2-2.38,62.41,62.41,0,0,1-17.43-6.47,41.32,41.32,0,0,1-12.23-9.89,30.08,30.08,0,0,1-5.3-11.16,47,47,0,0,1-1.19-16.35c.18-2,.48-4.73.9-8s1-7.51,1.83-12.58l2.2-14.45c.74-4.53,1.71-11.21,2.87-19.87l3-22.24c.8-6.08,1.64-12.87,2.48-20.18l.11-1,1,0q11.84.21,16,.2c3.56,0,8.79-.07,15.55-.2l1.25,0-12.26,84c-.15.95-.27,1.95-.36,3-.79,9-.11,15.82,2,20.26a19.43,19.43,0,0,0,10.17,9.63,42.12,42.12,0,0,0,16.78,3.09,48.89,48.89,0,0,0,11.77-1.4,37.69,37.69,0,0,0,8.45-3.29,28.12,28.12,0,0,0,5.58-4.13,29.72,29.72,0,0,0,5-6.62,34,34,0,0,0,3.53-8.38c1.29-4.79,2.86-13.27,4.66-25.19l5.29-35.67c1.38-10.31,2.78-21.85,4.14-34.3l.11-1,1,0c7.54.13,13.31.2,17.15.2l16.2-.22-7.68,50.64L251.6,92.31c-1.43,9.19-3,16.16-4.72,20.72a48.39,48.39,0,0,1-5.66,10.7,43.63,43.63,0,0,1-7.75,7.91,59.12,59.12,0,0,1-12.88,7.72,75.71,75.71,0,0,1-17,5.3A136.15,136.15,0,0,1,178.7,146.93ZM133.62,4.57c-.81,7-1.61,13.43-2.38,19.26l-3,22.24c-1.17,8.69-2.14,15.39-2.88,19.92l-2.19,14.44c-.79,5.06-1.4,9.27-1.83,12.53s-.72,5.89-.89,7.9a45.13,45.13,0,0,0,1.13,15.63,28,28,0,0,0,4.91,10.38,39.45,39.45,0,0,0,11.61,9.37,60.78,60.78,0,0,0,16.83,6.24,114.45,114.45,0,0,0,23.76,2.33,133.66,133.66,0,0,0,24.51-2.24,73.14,73.14,0,0,0,16.51-5.15A56.4,56.4,0,0,0,232.15,130a41.12,41.12,0,0,0,7.36-7.5,46.08,46.08,0,0,0,5.38-10.19c1.66-4.43,3.21-11.26,4.61-20.29L255,52.76l7.31-48.19-13.71.19h0c-3.71,0-9.16-.06-16.23-.19C231,16.67,229.64,27.9,228.29,38L223,73.66c-1.8,12-3.39,20.56-4.71,25.44a35.73,35.73,0,0,1-3.74,8.88,29.06,29.06,0,0,1-11.41,11.55,39.82,39.82,0,0,1-9,3.48,50.69,50.69,0,0,1-12.29,1.47,44.32,44.32,0,0,1-17.62-3.26A21.5,21.5,0,0,1,153,110.56c-2.29-4.8-3-12-2.22-21.36.09-1.12.22-2.17.38-3.15L163.07,4.58c-6.17.12-11,.18-14.34.18Q144.7,4.76,133.62,4.57Z"/><path class="cls-1" d="M272.5,143.41l5.88-35.67,5.94-44.59,5.21-44.38q.36-2.86,1.44-15.27,11.36.21,21.41.2,7.49,0,19.76-.31t21.2-.3a161.08,161.08,0,0,1,22.27,1.43A52.36,52.36,0,0,1,393.14,9.9a43.36,43.36,0,0,1,12.46,9.89A47.93,47.93,0,0,1,413.67,33a63.41,63.41,0,0,1,4.08,16.09,84.56,84.56,0,0,1,.31,18.09,98.6,98.6,0,0,1-9,33.57,72.8,72.8,0,0,1-20.5,26.34,64.53,64.53,0,0,1-28,13.38,173.52,173.52,0,0,1-33.62,3l-34.83-.2Q288.82,143.21,272.5,143.41Zm33.36-21.83q8.37.4,16.57.41a153.81,153.81,0,0,0,17.36-.92,68.61,68.61,0,0,0,13.94-2.92,40.21,40.21,0,0,0,12.15-7,48.55,48.55,0,0,0,10.5-11.63,63.24,63.24,0,0,0,6.93-14.71,73.33,73.33,0,0,0,3.39-16.5q1.35-15.37-3-25.27T371.14,28.76q-8.17-4.35-26-4.35-11.58,0-26.58.41Z"/><path class="cls-1" d="M271.25,144.49l6.08-36.92L283.27,63l5.21-44.36c.24-1.93.72-7.06,1.44-15.25l.08-1,1,0c7.42.13,14.62.2,21.39.2,5,0,11.65-.1,19.73-.31S347.47,2,353.34,2a161.69,161.69,0,0,1,22.42,1.44A53.6,53.6,0,0,1,393.64,9,44.52,44.52,0,0,1,406.4,19.1a49,49,0,0,1,8.25,13.46,64.35,64.35,0,0,1,4.15,16.37,86.65,86.65,0,0,1,.32,18.31A100,100,0,0,1,410,101.17a74.2,74.2,0,0,1-20.8,26.72,65.85,65.85,0,0,1-28.43,13.59,175,175,0,0,1-33.83,3l-34.84-.2q-3.27,0-19.58.2Zm20.85-2.34,34.84.2a173.15,173.15,0,0,0,33.41-2.95,64,64,0,0,0,27.52-13.16,72.21,72.21,0,0,0,20.2-26A97.84,97.84,0,0,0,417,67.06a84.49,84.49,0,0,0-.31-17.87,62.34,62.34,0,0,0-4-15.82,46.89,46.89,0,0,0-7.89-12.88,42.38,42.38,0,0,0-12.17-9.65,51.29,51.29,0,0,0-17.16-5.27,159.17,159.17,0,0,0-22.13-1.42c-5.85,0-13,.1-21.17.3s-14.76.31-19.79.31c-6.49,0-13.36-.06-20.44-.19-.67,7.64-1.13,12.46-1.35,14.33l-5.22,44.38-5.94,44.6-5.68,34.46Q288.95,142.15,292.1,142.15Zm30.33-19.1c-5.46,0-11.05-.14-16.62-.41l-1.15-.06,12.95-98.8.91,0c10-.27,19-.41,26.61-.41,12,0,20.93,1.5,26.51,4.48s10,8,13,14.75,4,15.41,3.11,25.79a75.36,75.36,0,0,1-3.44,16.74,65.4,65.4,0,0,1-7.05,15A50.21,50.21,0,0,1,366.55,112a41.54,41.54,0,0,1-12.48,7.2,69.41,69.41,0,0,1-14.16,3A153.82,153.82,0,0,1,322.43,123.05Zm-15.37-2.47c11.42.51,23,.54,32.61-.57a67.28,67.28,0,0,0,13.72-2.87,39.49,39.49,0,0,0,11.83-6.84,48.12,48.12,0,0,0,10.27-11.39,62.72,62.72,0,0,0,6.81-14.46,73,73,0,0,0,3.35-16.27c.87-10-.11-18.34-2.94-24.74s-6.85-11-12.06-13.74-13.86-4.23-25.52-4.23c-7.4,0-16,.13-25.65.38Z"/><path class="cls-1" d="M431.07,143.41q5.54-35.25,10.31-72.31t6.48-56.64l.86-11,17.11.2q1.44,0,15.72-.2Q472.64,57.41,464,143.41l-15.06-.2Q445.15,143.21,431.07,143.41Z"/><path class="cls-1" d="M429.83,144.49l.19-1.24c3.68-23.41,7.14-47.73,10.31-72.29s5.35-43.65,6.48-56.59l.93-11.95,18.11.22q1.41,0,15.68-.2l1.27,0-.21,1.25c-5.9,35.73-11.8,82.79-17.54,139.85l-.1,1-16-.22q-3.76,0-17.83.2Zm19.11-2.34,14.1.19c5.65-56,11.45-102.35,17.25-137.76q-13.08.18-14.46.18L449.7,4.57l-.78,10c-1.13,13-3.32,32-6.49,56.68-3.11,24.15-6.51,48.06-10.12,71.1Q445.32,142.15,448.94,142.15Z"/><path class="cls-1" d="M490,143.41l4.7-23.16,13.91-81.39L514.07,3.5q14.63.21,21.38.2,5.43,0,19.78-.2.91,8.29,1.43,11.78t2.21,11.18q1.7,7.68,4.43,18.65,4,16.61,6.89,32.8l5.24,29.32,17-37.62,24.22-48.89c.83-1.64,1.69-3.54,2.6-5.69s2.45-6,4.64-11.53q12.18.21,21.72.2Q652,3.7,666,3.5q-4,29.52-7.86,65.24t-5.38,53.35q-.75,8.52-1.66,21.32-10.14-.19-13.82-.2-5.34,0-14.17.2,1.53-10.46,2.32-17.22l7.06-61q1.44-12.91,2.53-25.42l.62-8.3-46.4,99.73-5.46,12.2q-10-.19-13.67-.2-4.63,0-14.53.2L543.41,80.27q-.63-3.37-3.07-14.15l-4.53-20.91q-.66-3-1-4.86l-1.26-8.46L531.11,45q-1.07,6.26-3.37,20.91l-9.56,63.55q-.61,4.72-1.53,13.94l-13.2-.2Q500.08,143.21,490,143.41Z"/><path class="cls-1" d="M621.83,144.5l.18-1.24c1-6.82,1.77-12.6,2.32-17.19l7.06-61c1-8.62,1.81-17.17,2.53-25.39l.18-2.49-44,94.46-5.73,12.83-.71,0q-9.94-.19-13.65-.2c-3.07,0-7.95.07-14.51.2l-.9,0-12.28-64c-.41-2.24-1.42-6.85-3.06-14.11l-4.53-20.92c-.45-2-.77-3.64-1-4.93-.08-.5-.2-1.25-.34-2.25l-1.32,7q-1,6.23-3.36,20.88l-9.56,63.54c-.41,3.09-.91,7.64-1.52,13.89l-.1,1-14.18-.22q-3.35,0-13.4.2l-1.32,0,5-24.46,13.9-81.36,5.6-36.26.92,0c9.55.13,16.74.2,21.36.2,3.74,0,10.39-.07,19.77-.2l1,0,.1,1c.61,5.51,1.09,9.46,1.43,11.75s1.07,6,2.2,11.1,2.6,11.33,4.42,18.62c2.66,11.07,5,22.12,6.91,32.88l4.63,26,15.6-34.51,24.24-48.92c.83-1.64,1.69-3.54,2.57-5.63s2.45-6,4.63-11.51l.27-.69.74,0c8,.13,15.26.2,21.7.2,4.36,0,11.19-.07,20.31-.2l1.24,0L667,3.64c-2.66,19.55-5.31,41.49-7.86,65.21s-4.35,41.61-5.37,53.33c-.51,5.74-1.06,12.91-1.66,21.31l-.08,1-1,0q-10.12-.19-13.8-.2c-3.53,0-8.29.07-14.15.2Zm-51.77-2.35q3.59,0,13,.19l5.18-11.56,48.86-105L636,39.86c-.72,8.25-1.57,16.81-2.53,25.46l-7.07,61c-.51,4.33-1.23,9.71-2.14,16,5.3-.11,9.65-.17,12.94-.17q3.51,0,12.83.18c.58-8,1.11-14.81,1.59-20.33,1-11.74,2.84-29.7,5.39-53.37,2.49-23.25,5.08-44.79,7.69-64-8.52.12-14.94.18-19.11.18-6.26,0-13.32-.06-21-.19q-3.08,7.77-4.38,10.87c-.89,2.14-1.78,4.07-2.62,5.75L593.39,70.08,575,110.78,569.15,78.1c-1.92-10.71-4.23-21.73-6.88-32.74-1.82-7.3-3.32-13.59-4.43-18.67s-1.88-8.9-2.23-11.25c-.32-2.18-.77-5.83-1.33-10.87-8.88.13-15.21.19-18.83.19-4.48,0-11.36-.06-20.47-.19L509.66,39l-13.91,81.41-4.44,21.9q9-.18,12.14-.18l12.24.19c.58-5.78,1-10,1.44-13l9.56-63.57q2.32-14.67,3.38-20.93l3.65-19.33.92,6.23q1,6.56,1.26,8.45c.19,1.24.51,2.86,1,4.8l4.53,20.92c1.65,7.28,2.65,11.92,3.07,14.18l11.95,62.25C562.53,142.21,567.12,142.15,570.06,142.15Z"/><path class="cls-1" d="M696.54,3.5c7.91.14,13.25.2,16.05.2q5.22,0,15.58-.2L716.09,86.21c-.15,1-.28,2-.37,3.08q-1.22,13.84,2.12,20.81a20.43,20.43,0,0,0,10.7,10.15,43.32,43.32,0,0,0,17.21,3.17,49.46,49.46,0,0,0,12-1.43,39,39,0,0,0,8.7-3.38,29.31,29.31,0,0,0,5.81-4.31,30.37,30.37,0,0,0,5.22-6.87,34.64,34.64,0,0,0,3.63-8.61q2-7.27,4.68-25.31l5.3-35.67q2.08-15.59,4.14-34.34,11.55.21,17.18.2l15-.2L819.9,52.9l-5.49,39.26q-2.11,13.74-4.66,20.5a46.87,46.87,0,0,1-5.53,10.46,41.52,41.52,0,0,1-7.54,7.68A57.43,57.43,0,0,1,784,138.39a74.1,74.1,0,0,1-16.75,5.23,134.77,134.77,0,0,1-24.7,2.25,114.61,114.61,0,0,1-24-2.36,61.05,61.05,0,0,1-17.12-6.35,40,40,0,0,1-11.92-9.63,28.91,28.91,0,0,1-5.11-10.77,45.72,45.72,0,0,1-1.16-16q.27-3.08.9-7.94T686,80.27l2.2-14.45q1.11-6.76,2.88-19.89l3-22.24Q695.27,14.57,696.54,3.5Z"/><path class="cls-1" d="M742.57,146.93a116.66,116.66,0,0,1-24.21-2.38,62.46,62.46,0,0,1-17.42-6.47,41.34,41.34,0,0,1-12.23-9.89,29.92,29.92,0,0,1-5.3-11.16,47,47,0,0,1-1.2-16.35c.18-2.05.49-4.74.91-8s1-7.47,1.83-12.58l2.19-14.45c.75-4.6,1.72-11.28,2.88-19.87l3-22.24c.81-6.12,1.65-12.91,2.49-20.18l.11-1,1,0q11.85.21,16,.2c3.56,0,8.79-.07,15.56-.2l1.25,0-12.26,84c-.15.95-.27,1.95-.37,3-.78,9-.1,15.81,2,20.26A19.41,19.41,0,0,0,729,119.27a42.21,42.21,0,0,0,16.79,3.09,48.81,48.81,0,0,0,11.76-1.4,37.77,37.77,0,0,0,8.46-3.29,28.41,28.41,0,0,0,5.58-4.13,29.68,29.68,0,0,0,5-6.62,34,34,0,0,0,3.53-8.38c1.3-4.79,2.87-13.26,4.66-25.19l5.3-35.67c1.38-10.34,2.78-21.88,4.14-34.3l.11-1,1,0c7.54.13,13.31.2,17.16.2l16.2-.22-7.69,50.64-5.48,39.25c-1.42,9.19-3,16.15-4.72,20.72a48.36,48.36,0,0,1-5.65,10.7,43.63,43.63,0,0,1-7.75,7.91,59.2,59.2,0,0,1-12.89,7.72,75.55,75.55,0,0,1-17,5.3A136,136,0,0,1,742.57,146.93ZM697.49,4.57c-.81,6.92-1.61,13.39-2.39,19.26l-3,22.24C691,54.69,690,61.39,689.24,66L687,80.43c-.79,5.1-1.4,9.31-1.82,12.53s-.72,5.88-.9,7.9a45.13,45.13,0,0,0,1.13,15.63,27.9,27.9,0,0,0,4.92,10.38A39.32,39.32,0,0,0,702,136.24a60.66,60.66,0,0,0,16.83,6.24,114.38,114.38,0,0,0,23.76,2.33,133.55,133.55,0,0,0,24.5-2.24,73.23,73.23,0,0,0,16.52-5.15A56.87,56.87,0,0,0,796,130a40.74,40.74,0,0,0,7.35-7.5,46.09,46.09,0,0,0,5.39-10.19c1.66-4.43,3.21-11.26,4.6-20.29l5.49-39.24,7.31-48.19-13.72.19h0c-3.7,0-9.15-.06-16.23-.19-1.33,12.07-2.69,23.31-4,33.41l-5.3,35.68c-1.81,12-3.4,20.57-4.71,25.44a36.11,36.11,0,0,1-3.74,8.88,31.32,31.32,0,0,1-5.39,7.08,31,31,0,0,1-6,4.47,39.82,39.82,0,0,1-9,3.48,50.81,50.81,0,0,1-12.29,1.47,44.37,44.37,0,0,1-17.63-3.26,21.52,21.52,0,0,1-11.23-10.66c-2.3-4.8-3-12-2.23-21.36q.15-1.68.39-3.15L726.94,4.58c-6.17.12-11,.18-14.35.18Q708.57,4.76,697.49,4.57Z"/><path class="cls-1" d="M832.94,140.44q.54-15.58.07-25.42,19.29,9.12,35.69,9.12a38.26,38.26,0,0,0,12.42-2,19.34,19.34,0,0,0,8.9-5.64,14.36,14.36,0,0,0,3.43-8.14,14,14,0,0,0-.76-6.26,25.41,25.41,0,0,0-5.84-7.89q-5.36-5.64-19.28-18.55-6.63-6.25-9.12-8.92a63.94,63.94,0,0,1-8.51-10.51A30.07,30.07,0,0,1,846,47a32.18,32.18,0,0,1-.58-9.84,35.74,35.74,0,0,1,7-18.1q6.12-8.44,17.24-13.22T897.1,1a169,169,0,0,1,32.69,3.58q-.42,10.67-.08,24.4-15.42-6.15-28.93-6.15-10,0-16.82,4.56T876.64,38a13.81,13.81,0,0,0,.15,3.43,14.41,14.41,0,0,0,1,3.49,24.51,24.51,0,0,0,2.79,4.41,46.87,46.87,0,0,0,6.13,6.35q4.1,3.64,7,5.9L905.39,73.1a111.05,111.05,0,0,1,7.92,7.79,70.52,70.52,0,0,1,5.86,7.27,34.14,34.14,0,0,1,3.66,6.67,28.51,28.51,0,0,1,1.73,6.5,30.89,30.89,0,0,1,.16,7,37.06,37.06,0,0,1-5.42,16.24,38,38,0,0,1-12.58,12.56,52.28,52.28,0,0,1-17,6.82,93.26,93.26,0,0,1-19,1.89,117.11,117.11,0,0,1-15.17-1.13Q846.91,143.62,832.94,140.44Z"/><path class="cls-1" d="M870.69,146.93a121.06,121.06,0,0,1-15.31-1.13c-5.75-.76-13.38-2.21-22.68-4.33l-.85-.19,0-.88c.36-10.32.38-18.84.07-25.33l-.09-1.76,1.6.75c12.66,6,24.51,9,35.24,9a37.3,37.3,0,0,0,12.08-1.94,18.46,18.46,0,0,0,8.43-5.31,13.56,13.56,0,0,0,3.19-7.57,12.93,12.93,0,0,0-.7-5.77A24.36,24.36,0,0,0,886.11,95c-3.57-3.75-10-10-19.26-18.53-4.43-4.18-7.51-7.2-9.17-9A64.44,64.44,0,0,1,849,56.79a31.42,31.42,0,0,1-4-9.6A33,33,0,0,1,844.41,37a36.92,36.92,0,0,1,7.16-18.62c4.17-5.77,10.12-10.33,17.69-13.57,14.23-6.1,35.26-6.32,60.74-1.24l.89.17,0,.91c-.28,7.06-.3,15.24-.08,24.33l0,1.6L929.32,30c-10.11-4-19.71-6.08-28.54-6.08-6.43,0-11.89,1.47-16.23,4.38s-6.53,6.14-6.85,9.82a13.23,13.23,0,0,0,1.09,6.4,22.59,22.59,0,0,0,2.67,4.2,45.27,45.27,0,0,0,6,6.2c2.7,2.4,5,4.37,6.95,5.85l11.74,11.56c2.94,2.64,5.63,5.29,8,7.83A70.61,70.61,0,0,1,920,87.56a35.23,35.23,0,0,1,3.78,6.88,30.09,30.09,0,0,1,1.79,6.74,31.85,31.85,0,0,1,.16,7.27,38.19,38.19,0,0,1-5.57,16.71,39.33,39.33,0,0,1-12.92,12.9A53.42,53.42,0,0,1,889.93,145,93.9,93.9,0,0,1,870.69,146.93ZM834,139.6c8.84,2,16.12,3.37,21.63,4.09a116.73,116.73,0,0,0,15,1.12,92.59,92.59,0,0,0,18.81-1.87,51.26,51.26,0,0,0,16.66-6.68,37.17,37.17,0,0,0,12.23-12.21,36.15,36.15,0,0,0,5.27-15.79,29.3,29.3,0,0,0-.15-6.78,27.21,27.21,0,0,0-1.67-6.26,32.24,32.24,0,0,0-3.55-6.45,66.41,66.41,0,0,0-5.77-7.17,108.57,108.57,0,0,0-7.83-7.71L893,62.37c-1.86-1.42-4.24-3.42-7-5.86A47.37,47.37,0,0,1,879.76,50a24.75,24.75,0,0,1-2.91-4.62A15.36,15.36,0,0,1,875.59,38c.38-4.35,3-8.18,7.78-11.4s10.55-4.74,17.41-4.74c8.66,0,18,1.9,27.83,5.65-.17-8.12-.14-15.49.09-22-24.64-4.8-45-4.56-58.61,1.29-7.2,3.08-12.86,7.41-16.8,12.87a34.84,34.84,0,0,0-6.77,17.56,31,31,0,0,0,.55,9.52,29.59,29.59,0,0,0,3.77,9A64.12,64.12,0,0,0,859.21,66c1.65,1.76,4.7,4.75,9.09,8.89,9.24,8.58,15.75,14.83,19.32,18.59a26.54,26.54,0,0,1,6,8.21,15.06,15.06,0,0,1,.84,6.76,15.5,15.5,0,0,1-3.68,8.73,20.48,20.48,0,0,1-9.36,6,39.64,39.64,0,0,1-12.77,2c-10.59,0-22.21-2.85-34.56-8.48C834.37,122.82,834.33,130.5,834,139.6Z"/><text class="cls-2" transform="matrix(1, 0, -0.09, 1, 174.05, 237.46)">Create. Move. Play.</text></g></g></svg>